<svg width="28" height="28" viewBox="0 0 24 24" fill="none" xmlns="http://www.w3.org/2000/svg">
<path fill-rule="evenodd" clip-rule="evenodd" d="M2.40002 5.7C2.40002 5.46131 2.49485 5.23239 2.66363 5.06361C2.83241 4.89482 3.06133 4.8 3.30002 4.8H20.7C20.9387 4.8 21.1676 4.89482 21.3364 5.06361C21.5052 5.23239 21.6 5.46131 21.6 5.7C21.6 5.9387 21.5052 6.16762 21.3364 6.3364C21.1676 6.50518 20.9387 6.6 20.7 6.6H3.30002C3.06133 6.6 2.83241 6.50518 2.66363 6.3364C2.49485 6.16762 2.40002 5.9387 2.40002 5.7ZM10.8 18.3C10.8 18.0613 10.8948 17.8324 11.0636 17.6636C11.2324 17.4948 11.4613 17.4 11.7 17.4H20.7C20.9387 17.4 21.1676 17.4948 21.3364 17.6636C21.5052 17.8324 21.6 18.0613 21.6 18.3C21.6 18.5387 21.5052 18.7676 21.3364 18.9364C21.1676 19.1052 20.9387 19.2 20.7 19.2H11.7C11.4613 19.2 11.2324 19.1052 11.0636 18.9364C10.8948 18.7676 10.8 18.5387 10.8 18.3ZM6.40002 12C6.40002 11.7613 6.49485 11.5324 6.66363 11.3636C6.83241 11.1948 7.06133 11.1 7.30002 11.1H20.7C20.9387 11.1 21.1676 11.1948 21.3364 11.3636C21.5052 11.5324 21.6 11.7613 21.6 12C21.6 12.2387 21.5052 12.4676 21.3364 12.6364C21.1676 12.8052 20.9387 12.9 20.7 12.9H7.30002C7.06133 12.9 6.83241 12.8052 6.66363 12.6364C6.49485 12.4676 6.40002 12.2387 6.40002 12Z" fill="#ffffff"/>
</svg>
